<mxfile host="app.diagrams.net" agent="Mozilla/5.0 (Macintosh; Intel Mac OS X 10_15_7) AppleWebKit/537.36 (KHTML, like Gecko) Chrome/128.0.0.0 Safari/537.36" version="24.7.13">
  <diagram id="C5RBs43oDa-KdzZeNtuy" name="Page-1">
    <mxGraphModel dx="2120" dy="1420" grid="1" gridSize="10" guides="1" tooltips="1" connect="1" arrows="1" fold="1" page="1" pageScale="1" pageWidth="827" pageHeight="1169" math="0" shadow="0">
      <root>
        <mxCell id="WIyWlLk6GJQsqaUBKTNV-0" />
        <mxCell id="WIyWlLk6GJQsqaUBKTNV-1" parent="WIyWlLk6GJQsqaUBKTNV-0" />
        <mxCell id="zkfFHV4jXpPFQw0GAbJ--0" value="Library" style="swimlane;fontStyle=2;align=center;verticalAlign=top;childLayout=stackLayout;horizontal=1;startSize=26;horizontalStack=0;resizeParent=1;resizeLast=0;collapsible=1;marginBottom=0;rounded=0;shadow=0;strokeWidth=1;" parent="WIyWlLk6GJQsqaUBKTNV-1" vertex="1">
          <mxGeometry x="272" y="90" width="220" height="178" as="geometry">
            <mxRectangle x="230" y="140" width="160" height="26" as="alternateBounds" />
          </mxGeometry>
        </mxCell>
        <mxCell id="zkfFHV4jXpPFQw0GAbJ--2" value="a collection of Books and &#xa;a collection of Members" style="text;align=left;verticalAlign=top;spacingLeft=4;spacingRight=4;overflow=hidden;rotatable=0;points=[[0,0.5],[1,0.5]];portConstraint=eastwest;rounded=0;shadow=0;html=0;" parent="zkfFHV4jXpPFQw0GAbJ--0" vertex="1">
          <mxGeometry y="26" width="220" height="64" as="geometry" />
        </mxCell>
        <mxCell id="zkfFHV4jXpPFQw0GAbJ--4" value="" style="line;html=1;strokeWidth=1;align=left;verticalAlign=middle;spacingTop=-1;spacingLeft=3;spacingRight=3;rotatable=0;labelPosition=right;points=[];portConstraint=eastwest;" parent="zkfFHV4jXpPFQw0GAbJ--0" vertex="1">
          <mxGeometry y="90" width="220" height="8" as="geometry" />
        </mxCell>
        <mxCell id="3_w9u4RtWhGh4dt_HGQF-9" value="&lt;code&gt;checkOutBook()&lt;/code&gt;,&amp;nbsp;&lt;span style=&quot;background-color: initial;&quot;&gt;returnBook()&lt;/span&gt;" style="text;html=1;align=center;verticalAlign=middle;resizable=0;points=[];autosize=1;strokeColor=none;fillColor=none;" vertex="1" parent="zkfFHV4jXpPFQw0GAbJ--0">
          <mxGeometry y="98" width="220" height="30" as="geometry" />
        </mxCell>
        <mxCell id="zkfFHV4jXpPFQw0GAbJ--6" value="Member" style="swimlane;fontStyle=0;align=center;verticalAlign=top;childLayout=stackLayout;horizontal=1;startSize=26;horizontalStack=0;resizeParent=1;resizeLast=0;collapsible=1;marginBottom=0;rounded=0;shadow=0;strokeWidth=1;" parent="WIyWlLk6GJQsqaUBKTNV-1" vertex="1">
          <mxGeometry x="10" y="370" width="232" height="160" as="geometry">
            <mxRectangle x="130" y="380" width="160" height="26" as="alternateBounds" />
          </mxGeometry>
        </mxCell>
        <mxCell id="zkfFHV4jXpPFQw0GAbJ--7" value="a name, ID number," style="text;align=left;verticalAlign=top;spacingLeft=4;spacingRight=4;overflow=hidden;rotatable=0;points=[[0,0.5],[1,0.5]];portConstraint=eastwest;" parent="zkfFHV4jXpPFQw0GAbJ--6" vertex="1">
          <mxGeometry y="26" width="232" height="26" as="geometry" />
        </mxCell>
        <mxCell id="zkfFHV4jXpPFQw0GAbJ--8" value="list of borrowed books" style="text;align=left;verticalAlign=top;spacingLeft=4;spacingRight=4;overflow=hidden;rotatable=0;points=[[0,0.5],[1,0.5]];portConstraint=eastwest;rounded=0;shadow=0;html=0;" parent="zkfFHV4jXpPFQw0GAbJ--6" vertex="1">
          <mxGeometry y="52" width="232" height="26" as="geometry" />
        </mxCell>
        <mxCell id="zkfFHV4jXpPFQw0GAbJ--9" value="" style="line;html=1;strokeWidth=1;align=left;verticalAlign=middle;spacingTop=-1;spacingLeft=3;spacingRight=3;rotatable=0;labelPosition=right;points=[];portConstraint=eastwest;" parent="zkfFHV4jXpPFQw0GAbJ--6" vertex="1">
          <mxGeometry y="78" width="232" height="8" as="geometry" />
        </mxCell>
        <mxCell id="3_w9u4RtWhGh4dt_HGQF-8" value="&lt;font style=&quot;font-size: 11px;&quot;&gt;&lt;code style=&quot;&quot;&gt;borrowBook()&lt;/code&gt;,&amp;nbsp;&lt;/font&gt;&lt;span style=&quot;font-size: 11px; background-color: initial;&quot;&gt;returnBook(),&amp;nbsp;&lt;/span&gt;&lt;span style=&quot;font-size: 11px; background-color: initial;&quot;&gt;showID()&lt;/span&gt;" style="text;html=1;align=center;verticalAlign=middle;resizable=0;points=[];autosize=1;strokeColor=none;fillColor=none;" vertex="1" parent="zkfFHV4jXpPFQw0GAbJ--6">
          <mxGeometry y="86" width="232" height="30" as="geometry" />
        </mxCell>
        <mxCell id="zkfFHV4jXpPFQw0GAbJ--12" value="" style="endArrow=block;endSize=10;endFill=0;shadow=0;strokeWidth=1;rounded=0;curved=0;edgeStyle=elbowEdgeStyle;elbow=vertical;" parent="WIyWlLk6GJQsqaUBKTNV-1" source="zkfFHV4jXpPFQw0GAbJ--6" target="zkfFHV4jXpPFQw0GAbJ--0" edge="1">
          <mxGeometry width="160" relative="1" as="geometry">
            <mxPoint x="252" y="213" as="sourcePoint" />
            <mxPoint x="252" y="213" as="targetPoint" />
          </mxGeometry>
        </mxCell>
        <mxCell id="zkfFHV4jXpPFQw0GAbJ--13" value="Book" style="swimlane;fontStyle=0;align=center;verticalAlign=top;childLayout=stackLayout;horizontal=1;startSize=26;horizontalStack=0;resizeParent=1;resizeLast=0;collapsible=1;marginBottom=0;rounded=0;shadow=0;strokeWidth=1;" parent="WIyWlLk6GJQsqaUBKTNV-1" vertex="1">
          <mxGeometry x="552" y="370" width="235" height="140" as="geometry">
            <mxRectangle x="340" y="380" width="170" height="26" as="alternateBounds" />
          </mxGeometry>
        </mxCell>
        <mxCell id="zkfFHV4jXpPFQw0GAbJ--14" value="a title, author, ISBN, &#xa;availability status&#xa;" style="text;align=left;verticalAlign=top;spacingLeft=4;spacingRight=4;overflow=hidden;rotatable=0;points=[[0,0.5],[1,0.5]];portConstraint=eastwest;" parent="zkfFHV4jXpPFQw0GAbJ--13" vertex="1">
          <mxGeometry y="26" width="235" height="44" as="geometry" />
        </mxCell>
        <mxCell id="zkfFHV4jXpPFQw0GAbJ--15" value="" style="line;html=1;strokeWidth=1;align=left;verticalAlign=middle;spacingTop=-1;spacingLeft=3;spacingRight=3;rotatable=0;labelPosition=right;points=[];portConstraint=eastwest;" parent="zkfFHV4jXpPFQw0GAbJ--13" vertex="1">
          <mxGeometry y="70" width="235" height="8" as="geometry" />
        </mxCell>
        <mxCell id="3_w9u4RtWhGh4dt_HGQF-7" value="&lt;font style=&quot;font-size: 11px;&quot;&gt;&lt;code style=&quot;&quot;&gt;getDetails()&lt;/code&gt;,&amp;nbsp;&lt;code style=&quot;&quot;&gt;checkAvailability(),&amp;nbsp;&lt;/code&gt;&lt;/font&gt;&lt;div style=&quot;font-size: 11px;&quot;&gt;&lt;code style=&quot;&quot;&gt;&lt;font style=&quot;font-size: 11px;&quot;&gt;getTitle(), getAuthor()&lt;/font&gt;&lt;/code&gt;&lt;/div&gt;" style="text;html=1;align=center;verticalAlign=middle;resizable=0;points=[];autosize=1;strokeColor=none;fillColor=none;" vertex="1" parent="zkfFHV4jXpPFQw0GAbJ--13">
          <mxGeometry y="78" width="235" height="40" as="geometry" />
        </mxCell>
        <mxCell id="zkfFHV4jXpPFQw0GAbJ--16" value="" style="endArrow=block;endSize=10;endFill=0;shadow=0;strokeWidth=1;rounded=0;curved=0;edgeStyle=elbowEdgeStyle;elbow=vertical;" parent="WIyWlLk6GJQsqaUBKTNV-1" source="zkfFHV4jXpPFQw0GAbJ--13" target="zkfFHV4jXpPFQw0GAbJ--0" edge="1">
          <mxGeometry width="160" relative="1" as="geometry">
            <mxPoint x="262" y="383" as="sourcePoint" />
            <mxPoint x="362" y="281" as="targetPoint" />
          </mxGeometry>
        </mxCell>
        <mxCell id="3_w9u4RtWhGh4dt_HGQF-12" style="edgeStyle=orthogonalEdgeStyle;rounded=0;orthogonalLoop=1;jettySize=auto;html=1;entryX=0.008;entryY=0.277;entryDx=0;entryDy=0;entryPerimeter=0;" edge="1" parent="WIyWlLk6GJQsqaUBKTNV-1" source="zkfFHV4jXpPFQw0GAbJ--7" target="zkfFHV4jXpPFQw0GAbJ--14">
          <mxGeometry relative="1" as="geometry" />
        </mxCell>
        <mxCell id="3_w9u4RtWhGh4dt_HGQF-23" value="BankAccount" style="swimlane;fontStyle=2;align=center;verticalAlign=top;childLayout=stackLayout;horizontal=1;startSize=26;horizontalStack=0;resizeParent=1;resizeLast=0;collapsible=1;marginBottom=0;rounded=0;shadow=0;strokeWidth=1;" vertex="1" parent="WIyWlLk6GJQsqaUBKTNV-1">
          <mxGeometry x="302" y="650" width="220" height="178" as="geometry">
            <mxRectangle x="250" y="640" width="160" height="26" as="alternateBounds" />
          </mxGeometry>
        </mxCell>
        <mxCell id="3_w9u4RtWhGh4dt_HGQF-24" value="account number, balance, &#xa;and account&#xa;holder’s name" style="text;align=left;verticalAlign=top;spacingLeft=4;spacingRight=4;overflow=hidden;rotatable=0;points=[[0,0.5],[1,0.5]];portConstraint=eastwest;rounded=0;shadow=0;html=0;" vertex="1" parent="3_w9u4RtWhGh4dt_HGQF-23">
          <mxGeometry y="26" width="220" height="64" as="geometry" />
        </mxCell>
        <mxCell id="3_w9u4RtWhGh4dt_HGQF-25" value="" style="line;html=1;strokeWidth=1;align=left;verticalAlign=middle;spacingTop=-1;spacingLeft=3;spacingRight=3;rotatable=0;labelPosition=right;points=[];portConstraint=eastwest;" vertex="1" parent="3_w9u4RtWhGh4dt_HGQF-23">
          <mxGeometry y="90" width="220" height="8" as="geometry" />
        </mxCell>
        <mxCell id="3_w9u4RtWhGh4dt_HGQF-26" value="&lt;code&gt;deposit()&lt;/code&gt;, &lt;code&gt;withdraw()&lt;/code&gt;,&amp;nbsp;&lt;div&gt;&lt;code&gt;getBalance()&lt;/code&gt;&lt;br&gt;&lt;/div&gt;" style="text;html=1;align=center;verticalAlign=middle;resizable=0;points=[];autosize=1;strokeColor=none;fillColor=none;" vertex="1" parent="3_w9u4RtWhGh4dt_HGQF-23">
          <mxGeometry y="98" width="220" height="40" as="geometry" />
        </mxCell>
        <mxCell id="3_w9u4RtWhGh4dt_HGQF-27" value="SavingsAccount" style="swimlane;fontStyle=0;align=center;verticalAlign=top;childLayout=stackLayout;horizontal=1;startSize=26;horizontalStack=0;resizeParent=1;resizeLast=0;collapsible=1;marginBottom=0;rounded=0;shadow=0;strokeWidth=1;" vertex="1" parent="WIyWlLk6GJQsqaUBKTNV-1">
          <mxGeometry x="12" y="930" width="260" height="170" as="geometry">
            <mxRectangle x="130" y="380" width="160" height="26" as="alternateBounds" />
          </mxGeometry>
        </mxCell>
        <mxCell id="3_w9u4RtWhGh4dt_HGQF-28" value="interestRate" style="text;align=left;verticalAlign=top;spacingLeft=4;spacingRight=4;overflow=hidden;rotatable=0;points=[[0,0.5],[1,0.5]];portConstraint=eastwest;" vertex="1" parent="3_w9u4RtWhGh4dt_HGQF-27">
          <mxGeometry y="26" width="260" height="26" as="geometry" />
        </mxCell>
        <mxCell id="3_w9u4RtWhGh4dt_HGQF-30" value="" style="line;html=1;strokeWidth=1;align=left;verticalAlign=middle;spacingTop=-1;spacingLeft=3;spacingRight=3;rotatable=0;labelPosition=right;points=[];portConstraint=eastwest;" vertex="1" parent="3_w9u4RtWhGh4dt_HGQF-27">
          <mxGeometry y="52" width="260" height="8" as="geometry" />
        </mxCell>
        <mxCell id="3_w9u4RtWhGh4dt_HGQF-31" value="inherit methods from BankAccount" style="text;html=1;align=center;verticalAlign=middle;resizable=0;points=[];autosize=1;strokeColor=none;fillColor=none;" vertex="1" parent="3_w9u4RtWhGh4dt_HGQF-27">
          <mxGeometry y="60" width="260" height="30" as="geometry" />
        </mxCell>
        <mxCell id="3_w9u4RtWhGh4dt_HGQF-32" value="" style="endArrow=block;endSize=10;endFill=0;shadow=0;strokeWidth=1;rounded=0;curved=0;edgeStyle=elbowEdgeStyle;elbow=vertical;" edge="1" parent="WIyWlLk6GJQsqaUBKTNV-1" source="3_w9u4RtWhGh4dt_HGQF-27" target="3_w9u4RtWhGh4dt_HGQF-23">
          <mxGeometry width="160" relative="1" as="geometry">
            <mxPoint x="282" y="773" as="sourcePoint" />
            <mxPoint x="282" y="773" as="targetPoint" />
          </mxGeometry>
        </mxCell>
        <mxCell id="3_w9u4RtWhGh4dt_HGQF-33" value="CheckingAccount" style="swimlane;fontStyle=0;align=center;verticalAlign=top;childLayout=stackLayout;horizontal=1;startSize=26;horizontalStack=0;resizeParent=1;resizeLast=0;collapsible=1;marginBottom=0;rounded=0;shadow=0;strokeWidth=1;" vertex="1" parent="WIyWlLk6GJQsqaUBKTNV-1">
          <mxGeometry x="582" y="930" width="235" height="140" as="geometry">
            <mxRectangle x="340" y="380" width="170" height="26" as="alternateBounds" />
          </mxGeometry>
        </mxCell>
        <mxCell id="3_w9u4RtWhGh4dt_HGQF-34" value="overdraftLimit&#xa;" style="text;align=left;verticalAlign=top;spacingLeft=4;spacingRight=4;overflow=hidden;rotatable=0;points=[[0,0.5],[1,0.5]];portConstraint=eastwest;" vertex="1" parent="3_w9u4RtWhGh4dt_HGQF-33">
          <mxGeometry y="26" width="235" height="44" as="geometry" />
        </mxCell>
        <mxCell id="3_w9u4RtWhGh4dt_HGQF-35" value="" style="line;html=1;strokeWidth=1;align=left;verticalAlign=middle;spacingTop=-1;spacingLeft=3;spacingRight=3;rotatable=0;labelPosition=right;points=[];portConstraint=eastwest;" vertex="1" parent="3_w9u4RtWhGh4dt_HGQF-33">
          <mxGeometry y="70" width="235" height="8" as="geometry" />
        </mxCell>
        <mxCell id="3_w9u4RtWhGh4dt_HGQF-36" value="inherit methods from BankAccount" style="text;html=1;align=center;verticalAlign=middle;resizable=0;points=[];autosize=1;strokeColor=none;fillColor=none;" vertex="1" parent="3_w9u4RtWhGh4dt_HGQF-33">
          <mxGeometry y="78" width="235" height="30" as="geometry" />
        </mxCell>
        <mxCell id="3_w9u4RtWhGh4dt_HGQF-37" value="" style="endArrow=block;endSize=10;endFill=0;shadow=0;strokeWidth=1;rounded=0;curved=0;edgeStyle=elbowEdgeStyle;elbow=vertical;" edge="1" parent="WIyWlLk6GJQsqaUBKTNV-1" source="3_w9u4RtWhGh4dt_HGQF-33" target="3_w9u4RtWhGh4dt_HGQF-23">
          <mxGeometry width="160" relative="1" as="geometry">
            <mxPoint x="292" y="943" as="sourcePoint" />
            <mxPoint x="392" y="841" as="targetPoint" />
          </mxGeometry>
        </mxCell>
        <mxCell id="3_w9u4RtWhGh4dt_HGQF-38" style="edgeStyle=orthogonalEdgeStyle;rounded=0;orthogonalLoop=1;jettySize=auto;html=1;entryX=0.008;entryY=0.277;entryDx=0;entryDy=0;entryPerimeter=0;" edge="1" parent="WIyWlLk6GJQsqaUBKTNV-1" source="3_w9u4RtWhGh4dt_HGQF-28" target="3_w9u4RtWhGh4dt_HGQF-34">
          <mxGeometry relative="1" as="geometry" />
        </mxCell>
        <mxCell id="3_w9u4RtWhGh4dt_HGQF-39" value="" style="whiteSpace=wrap;html=1;aspect=fixed;fillColor=none;" vertex="1" parent="WIyWlLk6GJQsqaUBKTNV-1">
          <mxGeometry x="602" y="650" width="180" height="180" as="geometry" />
        </mxCell>
        <mxCell id="3_w9u4RtWhGh4dt_HGQF-40" style="edgeStyle=orthogonalEdgeStyle;rounded=0;orthogonalLoop=1;jettySize=auto;html=1;entryX=0.013;entryY=0.321;entryDx=0;entryDy=0;entryPerimeter=0;" edge="1" parent="WIyWlLk6GJQsqaUBKTNV-1" source="3_w9u4RtWhGh4dt_HGQF-24" target="3_w9u4RtWhGh4dt_HGQF-39">
          <mxGeometry relative="1" as="geometry" />
        </mxCell>
        <mxCell id="3_w9u4RtWhGh4dt_HGQF-41" value="Transaction" style="text;html=1;align=center;verticalAlign=middle;whiteSpace=wrap;rounded=0;" vertex="1" parent="WIyWlLk6GJQsqaUBKTNV-1">
          <mxGeometry x="662" y="650" width="60" height="30" as="geometry" />
        </mxCell>
        <mxCell id="3_w9u4RtWhGh4dt_HGQF-44" value="" style="line;html=1;strokeWidth=1;align=left;verticalAlign=middle;spacingTop=-1;spacingLeft=3;spacingRight=3;rotatable=0;labelPosition=right;points=[];portConstraint=eastwest;" vertex="1" parent="WIyWlLk6GJQsqaUBKTNV-1">
          <mxGeometry x="602" y="680" width="180" height="8" as="geometry" />
        </mxCell>
        <mxCell id="3_w9u4RtWhGh4dt_HGQF-45" value="" style="line;html=1;strokeWidth=1;align=left;verticalAlign=middle;spacingTop=-1;spacingLeft=3;spacingRight=3;rotatable=0;labelPosition=right;points=[];portConstraint=eastwest;" vertex="1" parent="WIyWlLk6GJQsqaUBKTNV-1">
          <mxGeometry x="602" y="760" width="180" height="8" as="geometry" />
        </mxCell>
        <mxCell id="3_w9u4RtWhGh4dt_HGQF-46" value="&lt;code&gt;transactionID&lt;/code&gt;, &lt;code&gt;amount&lt;/code&gt;, &lt;code&gt;date&lt;/code&gt;" style="text;html=1;align=center;verticalAlign=middle;whiteSpace=wrap;rounded=0;" vertex="1" parent="WIyWlLk6GJQsqaUBKTNV-1">
          <mxGeometry x="602" y="688" width="180" height="30" as="geometry" />
        </mxCell>
        <mxCell id="3_w9u4RtWhGh4dt_HGQF-47" value="processTransaction()&lt;br&gt;&lt;div&gt;donateYourMoneyToBrian()&lt;/div&gt;" style="text;html=1;align=center;verticalAlign=middle;whiteSpace=wrap;rounded=0;" vertex="1" parent="WIyWlLk6GJQsqaUBKTNV-1">
          <mxGeometry x="602" y="768" width="180" height="30" as="geometry" />
        </mxCell>
      </root>
    </mxGraphModel>
  </diagram>
</mxfile>
